<svg xmlns="http://www.w3.org/2000/svg" xmlns:xlink="http://www.w3.org/1999/xlink" width="512" height="512"><linearGradient id="a"><stop offset="0" stop-color="#fdffff"/><stop offset="1" stop-color="#b8ccf4"/></linearGradient><linearGradient id="b"><stop offset="0" stop-color="#8997cd"/><stop offset="1" stop-color="#7380b2"/></linearGradient><linearGradient id="c" x1="79.521" x2="488.138" y1="568.011" y2="988.234" gradientUnits="userSpaceOnUse" xlink:href="#a"/><linearGradient id="d" x1="79.521" x2="488.138" y1="568.011" y2="988.234" gradientUnits="userSpaceOnUse" xlink:href="#b"/><linearGradient id="e" x1="119.209" x2="406.136" y1="934.072" y2="1044.179" gradientUnits="userSpaceOnUse" xlink:href="#b"/><linearGradient id="f" x1="198.001" x2="198.001" y1="950.235" y2="1037.114" gradientUnits="userSpaceOnUse" xlink:href="#a"/><linearGradient id="g" x1="332.824" x2="422.672" y1="559.06" y2="661.085" gradientUnits="userSpaceOnUse" xlink:href="#b"/><linearGradient id="h" x1="397.474" x2="706.525" y1="572.192" y2="615.628" gradientUnits="userSpaceOnUse" xlink:href="#b"/><linearGradient id="i" x1="268.518" x2="130.833" y1="642.281" y2="642.281" gradientUnits="userSpaceOnUse" xlink:href="#b"/><linearGradient id="j" x1="284.68" x2="146.995" y1="720.083" y2="720.083" gradientUnits="userSpaceOnUse" xlink:href="#b"/><linearGradient id="k" x1="330.137" x2="192.452" y1="799.926" y2="799.926" gradientUnits="userSpaceOnUse" xlink:href="#b"/><linearGradient id="l" x1="388.726" x2="251.041" y1="879.728" y2="879.728" gradientUnits="userSpaceOnUse" xlink:href="#b"/><g><g stroke-width="20"><path fill="url(#h)" stroke="url(#g)" d="m481.90368 660.42299c23.05371-44.60362 3.85103-115.55443-51.51778-107.07617-55.47645 8.49475-82.07972 54.51998-75.45544 106.54407z" transform="translate(0 -540.36218)"/><path fill="url(#c)" stroke="url(#d)" d="m183.74235 937.26845c-10.55983-51.16484-53.50752-107.94122-93.72195-157.64745-52.72293-65.16711-61.84804-226.11073 36.3655-226.27418l303.49242-.50508c-94.57539 15.98325-99.79928 156.06283-29.85792 226.77926 135.33843 136.83823 117.07113 263.9019 21.22513 264.1882" transform="translate(0 -540.36218)"/><path fill="url(#f)" stroke="url(#e)" d="m374.76659 937.20479c-2.0203 0-352.28177.50508-352.28177.50508-26.88019 61.6658 7.42347 105.94753 55.06947 106.09583l343.83562.2712c-41.75965-.1434-73.99983-50.90711-46.62332-106.87211z" transform="translate(0 -540.36218)"/></g><g fill="none" stroke-linecap="round" stroke-width="30"><path stroke="url(#i)" d="m122.90373 646.32146h188.89852" transform="translate(0 -540.36218)"/><path stroke="url(#j)" d="m139.06617 724.12351h182.83761" transform="translate(0 -540.36218)"/><path stroke="url(#k)" d="m184.52303 803.96617h182.83761" transform="translate(0 -540.36218)"/><path stroke="url(#l)" d="m243.11188 883.76822h183.84776" transform="translate(0 -540.36218)"/></g></g></svg>